<svg width="50" height="16" viewBox="0 0 50 16" fill="none" xmlns="http://www.w3.org/2000/svg">
<g opacity="0.5">
<path d="M24.2715 3.42188V12H23.1875V4.77539L21.002 5.57227V4.59375L24.1016 3.42188H24.2715ZM31.0215 3.42188V12H29.9375V4.77539L27.752 5.57227V4.59375L30.8516 3.42188H31.0215ZM34.2793 11.4258C34.2793 11.2422 34.3359 11.0879 34.4492 10.9629C34.5664 10.834 34.7344 10.7695 34.9531 10.7695C35.1719 10.7695 35.3379 10.834 35.4512 10.9629C35.5684 11.0879 35.627 11.2422 35.627 11.4258C35.627 11.6055 35.5684 11.7578 35.4512 11.8828C35.3379 12.0078 35.1719 12.0703 34.9531 12.0703C34.7344 12.0703 34.5664 12.0078 34.4492 11.8828C34.3359 11.7578 34.2793 11.6055 34.2793 11.4258ZM34.2852 6.25195C34.2852 6.06836 34.3418 5.91406 34.4551 5.78906C34.5723 5.66016 34.7402 5.5957 34.959 5.5957C35.1777 5.5957 35.3438 5.66016 35.457 5.78906C35.5742 5.91406 35.6328 6.06836 35.6328 6.25195C35.6328 6.43164 35.5742 6.58398 35.457 6.70898C35.3438 6.83398 35.1777 6.89648 34.959 6.89648C34.7402 6.89648 34.5723 6.83398 34.4551 6.70898C34.3418 6.58398 34.2852 6.43164 34.2852 6.25195ZM40.6777 3.42188V12H39.5938V4.77539L37.4082 5.57227V4.59375L40.5078 3.42188H40.6777ZM45.2363 7.93945L44.3691 7.7168L44.7969 3.46875H49.1738V4.4707H45.7168L45.459 6.79102C45.6152 6.70117 45.8125 6.61719 46.0508 6.53906C46.293 6.46094 46.5703 6.42188 46.8828 6.42188C47.2773 6.42188 47.6309 6.49023 47.9434 6.62695C48.2559 6.75977 48.5215 6.95117 48.7402 7.20117C48.9629 7.45117 49.1328 7.75195 49.25 8.10352C49.3672 8.45508 49.4258 8.84766 49.4258 9.28125C49.4258 9.69141 49.3691 10.0684 49.2559 10.4121C49.1465 10.7559 48.9805 11.0566 48.7578 11.3145C48.5352 11.5684 48.2539 11.7656 47.9141 11.9062C47.5781 12.0469 47.1816 12.1172 46.7246 12.1172C46.3809 12.1172 46.0547 12.0703 45.7461 11.9766C45.4414 11.8789 45.168 11.7324 44.9258 11.5371C44.6875 11.3379 44.4922 11.0918 44.3398 10.7988C44.1914 10.502 44.0977 10.1543 44.0586 9.75586H45.0898C45.1367 10.0762 45.2305 10.3457 45.3711 10.5645C45.5117 10.7832 45.6953 10.9492 45.9219 11.0625C46.1523 11.1719 46.4199 11.2266 46.7246 11.2266C46.9824 11.2266 47.2109 11.1816 47.4102 11.0918C47.6094 11.002 47.7773 10.873 47.9141 10.7051C48.0508 10.5371 48.1543 10.334 48.2246 10.0957C48.2988 9.85742 48.3359 9.58984 48.3359 9.29297C48.3359 9.02344 48.2988 8.77344 48.2246 8.54297C48.1504 8.3125 48.0391 8.11133 47.8906 7.93945C47.7461 7.76758 47.5684 7.63477 47.3574 7.54102C47.1465 7.44336 46.9043 7.39453 46.6309 7.39453C46.2676 7.39453 45.9922 7.44336 45.8047 7.54102C45.6211 7.63867 45.4316 7.77148 45.2363 7.93945Z" fill="#333333"/>
<g clip-path="url(#clip0_2_429)">
<path d="M8.00065 14.6654C11.6825 14.6654 14.6673 11.6806 14.6673 7.9987C14.6673 4.3168 11.6825 1.33203 8.00065 1.33203C4.31875 1.33203 1.33398 4.3168 1.33398 7.9987C1.33398 11.6806 4.31875 14.6654 8.00065 14.6654Z" stroke="#333333" stroke-width="1.5" stroke-linecap="round" stroke-linejoin="round"/>
<path d="M8 4V8L10.6667 9.33333" stroke="#333333" stroke-width="1.5" stroke-linecap="round" stroke-linejoin="round"/>
</g>
</g>
<defs>
<clipPath id="clip0_2_429">
<rect width="16" height="16" fill="white"/>
</clipPath>
</defs>
</svg>
