<svg width="41" height="16" viewBox="0 0 41 16" fill="none" xmlns="http://www.w3.org/2000/svg">
<g opacity="0.5">
<path d="M26.2988 11.1094V12H20.7148V11.2207L23.5098 8.10938C23.8535 7.72656 24.1191 7.40234 24.3066 7.13672C24.498 6.86719 24.6309 6.62695 24.7051 6.41602C24.7832 6.20117 24.8223 5.98242 24.8223 5.75977C24.8223 5.47852 24.7637 5.22461 24.6465 4.99805C24.5332 4.76758 24.3652 4.58398 24.1426 4.44727C23.9199 4.31055 23.6504 4.24219 23.334 4.24219C22.9551 4.24219 22.6387 4.31641 22.3848 4.46484C22.1348 4.60938 21.9473 4.8125 21.8223 5.07422C21.6973 5.33594 21.6348 5.63672 21.6348 5.97656H20.5508C20.5508 5.49609 20.6562 5.05664 20.8672 4.6582C21.0781 4.25977 21.3906 3.94336 21.8047 3.70898C22.2188 3.4707 22.7285 3.35156 23.334 3.35156C23.873 3.35156 24.334 3.44727 24.7168 3.63867C25.0996 3.82617 25.3926 4.0918 25.5957 4.43555C25.8027 4.77539 25.9062 5.17383 25.9062 5.63086C25.9062 5.88086 25.8633 6.13477 25.7773 6.39258C25.6953 6.64648 25.5801 6.90039 25.4316 7.1543C25.2871 7.4082 25.1172 7.6582 24.9219 7.9043C24.7305 8.15039 24.5254 8.39258 24.3066 8.63086L22.0215 11.1094H26.2988ZM33.0488 11.1094V12H27.4648V11.2207L30.2598 8.10938C30.6035 7.72656 30.8691 7.40234 31.0566 7.13672C31.248 6.86719 31.3809 6.62695 31.4551 6.41602C31.5332 6.20117 31.5723 5.98242 31.5723 5.75977C31.5723 5.47852 31.5137 5.22461 31.3965 4.99805C31.2832 4.76758 31.1152 4.58398 30.8926 4.44727C30.6699 4.31055 30.4004 4.24219 30.084 4.24219C29.7051 4.24219 29.3887 4.31641 29.1348 4.46484C28.8848 4.60938 28.6973 4.8125 28.5723 5.07422C28.4473 5.33594 28.3848 5.63672 28.3848 5.97656H27.3008C27.3008 5.49609 27.4062 5.05664 27.6172 4.6582C27.8281 4.25977 28.1406 3.94336 28.5547 3.70898C28.9688 3.4707 29.4785 3.35156 30.084 3.35156C30.623 3.35156 31.084 3.44727 31.4668 3.63867C31.8496 3.82617 32.1426 4.0918 32.3457 4.43555C32.5527 4.77539 32.6562 5.17383 32.6562 5.63086C32.6562 5.88086 32.6133 6.13477 32.5273 6.39258C32.4453 6.64648 32.3301 6.90039 32.1816 7.1543C32.0371 7.4082 31.8672 7.6582 31.6719 7.9043C31.4805 8.15039 31.2754 8.39258 31.0566 8.63086L28.7715 11.1094H33.0488ZM39.7988 11.1094V12H34.2148V11.2207L37.0098 8.10938C37.3535 7.72656 37.6191 7.40234 37.8066 7.13672C37.998 6.86719 38.1309 6.62695 38.2051 6.41602C38.2832 6.20117 38.3223 5.98242 38.3223 5.75977C38.3223 5.47852 38.2637 5.22461 38.1465 4.99805C38.0332 4.76758 37.8652 4.58398 37.6426 4.44727C37.4199 4.31055 37.1504 4.24219 36.834 4.24219C36.4551 4.24219 36.1387 4.31641 35.8848 4.46484C35.6348 4.60938 35.4473 4.8125 35.3223 5.07422C35.1973 5.33594 35.1348 5.63672 35.1348 5.97656H34.0508C34.0508 5.49609 34.1562 5.05664 34.3672 4.6582C34.5781 4.25977 34.8906 3.94336 35.3047 3.70898C35.7188 3.4707 36.2285 3.35156 36.834 3.35156C37.373 3.35156 37.834 3.44727 38.2168 3.63867C38.5996 3.82617 38.8926 4.0918 39.0957 4.43555C39.3027 4.77539 39.4062 5.17383 39.4062 5.63086C39.4062 5.88086 39.3633 6.13477 39.2773 6.39258C39.1953 6.64648 39.0801 6.90039 38.9316 7.1543C38.7871 7.4082 38.6172 7.6582 38.4219 7.9043C38.2305 8.15039 38.0254 8.39258 37.8066 8.63086L35.5215 11.1094H39.7988Z" fill="#333333"/>
<g clip-path="url(#clip0_2_441)">
<path d="M0.666016 8.0013C0.666016 8.0013 3.33268 2.66797 7.99935 2.66797C12.666 2.66797 15.3327 8.0013 15.3327 8.0013C15.3327 8.0013 12.666 13.3346 7.99935 13.3346C3.33268 13.3346 0.666016 8.0013 0.666016 8.0013Z" stroke="#333333" stroke-width="1.5" stroke-linecap="round" stroke-linejoin="round"/>
<path d="M8 10C9.10457 10 10 9.10457 10 8C10 6.89543 9.10457 6 8 6C6.89543 6 6 6.89543 6 8C6 9.10457 6.89543 10 8 10Z" stroke="#333333" stroke-width="1.5" stroke-linecap="round" stroke-linejoin="round"/>
</g>
</g>
<defs>
<clipPath id="clip0_2_441">
<rect width="16" height="16" fill="white"/>
</clipPath>
</defs>
</svg>
